<?xml version="1.0" encoding="UTF-8"?>
<!DOCTYPE svg PUBLIC "-//W3C//DTD SVG 1.1//EN" "http://www.w3.org/Graphics/SVG/1.1/DTD/svg11.dtd">
<svg xmlns="http://www.w3.org/2000/svg" version="1.1" width="512px" height="512px" style="shape-rendering:geometricPrecision; text-rendering:geometricPrecision; image-rendering:optimizeQuality; fill-rule:evenodd; clip-rule:evenodd" xmlns:xlink="http://www.w3.org/1999/xlink">
<g><path style="opacity:0.961" fill="#010102" d="M 232.5,-0.5 C 247.833,-0.5 263.167,-0.5 278.5,-0.5C 379.371,12.3469 450.871,65.0136 493,157.5C 502.497,181.819 508.663,206.819 511.5,232.5C 511.5,247.5 511.5,262.5 511.5,277.5C 505.686,338.141 481.686,390.308 439.5,434C 436.421,435.805 433.421,435.639 430.5,433.5C 429.928,431.745 429.094,430.078 428,428.5C 427.333,427.167 427.333,425.833 428,424.5C 487.058,359.958 507.724,284.625 490,198.5C 469.544,123.048 424.044,68.5478 353.5,35C 332.342,25.8676 310.342,19.701 287.5,16.5C 192.76,7.33538 116.594,40.3354 59,115.5C 8.53124,191.275 0.864575,271.275 36,355.5C 77.0439,438.134 143.544,484.968 235.5,496C 252.883,496.713 270.217,496.213 287.5,494.5C 328.707,488.604 366.041,473.437 399.5,449C 401.5,448.333 403.5,448.333 405.5,449C 406.471,450.481 407.804,451.315 409.5,451.5C 411.493,456.681 410.16,460.848 405.5,464C 367.342,490.997 325.009,506.83 278.5,511.5C 263.167,511.5 247.833,511.5 232.5,511.5C 143.853,500.61 76.6868,456.943 31,380.5C 13.7076,348.465 3.20759,314.465 -0.5,278.5C -0.5,263.167 -0.5,247.833 -0.5,232.5C 9.97281,143.568 53.6395,76.4011 130.5,31C 162.535,13.7076 196.535,3.20759 232.5,-0.5 Z"/></g>
<g><path style="opacity:1" fill="#9fe1f6" d="M 287.5,16.5 C 370.521,45.0215 426.021,101.022 454,184.5C 477.573,274.679 458.907,354.679 398,424.5C 366.929,457.098 330.096,480.431 287.5,494.5C 270.217,496.213 252.883,496.713 235.5,496C 143.544,484.968 77.0439,438.134 36,355.5C 0.864575,271.275 8.53124,191.275 59,115.5C 116.594,40.3354 192.76,7.33538 287.5,16.5 Z"/></g>
<g><path style="opacity:1" fill="#84daf5" d="M 287.5,16.5 C 310.342,19.701 332.342,25.8676 353.5,35C 424.044,68.5478 469.544,123.048 490,198.5C 507.724,284.625 487.058,359.958 428,424.5C 427.333,425.833 427.333,427.167 428,428.5C 429.094,430.078 429.928,431.745 430.5,433.5C 423.475,439.529 416.475,445.529 409.5,451.5C 407.804,451.315 406.471,450.481 405.5,449C 403.5,448.333 401.5,448.333 399.5,449C 366.041,473.437 328.707,488.604 287.5,494.5C 330.096,480.431 366.929,457.098 398,424.5C 458.907,354.679 477.573,274.679 454,184.5C 426.021,101.022 370.521,45.0215 287.5,16.5 Z"/></g>
<g><path style="opacity:1" fill="#060606" d="M 317.5,96.5 C 317.5,128.833 317.5,161.167 317.5,193.5C 349.833,193.5 382.167,193.5 414.5,193.5C 417.148,193.738 418.982,195.072 420,197.5C 420.667,236.167 420.667,274.833 420,313.5C 419.5,315.333 418.333,316.5 416.5,317C 407.506,317.5 398.506,317.666 389.5,317.5C 388.006,335.22 378.673,345.886 361.5,349.5C 364.377,382.708 349.71,395.374 317.5,387.5C 317.666,397.172 317.5,406.839 317,416.5C 316.5,418.333 315.333,419.5 313.5,420C 274.833,420.667 236.167,420.667 197.5,420C 195.072,418.982 193.738,417.148 193.5,414.5C 193.5,382.167 193.5,349.833 193.5,317.5C 161.167,317.5 128.833,317.5 96.5,317.5C 93.8517,317.262 92.0183,315.928 91,313.5C 90.3333,274.833 90.3333,236.167 91,197.5C 92.0183,195.072 93.8517,193.738 96.5,193.5C 128.833,193.5 161.167,193.5 193.5,193.5C 193.5,185.833 193.5,178.167 193.5,170.5C 194.002,166.41 196.335,164.41 200.5,164.5C 204.09,164.544 206.59,166.211 208,169.5C 208.667,180.5 208.667,191.5 208,202.5C 207.167,205.333 205.333,207.167 202.5,208C 170.168,208.5 137.835,208.667 105.5,208.5C 105.5,239.833 105.5,271.167 105.5,302.5C 137.835,302.333 170.168,302.5 202.5,303C 204.939,303.774 206.773,305.274 208,307.5C 208.5,340.165 208.667,372.832 208.5,405.5C 239.833,405.5 271.167,405.5 302.5,405.5C 302.5,399.5 302.5,393.5 302.5,387.5C 270.151,395.493 255.818,382.826 259.5,349.5C 247.227,347.766 238.727,341.099 234,329.5C 227.649,315.132 229.816,302.298 240.5,291C 245.931,287.359 251.931,285.859 258.5,286.5C 257.4,271.619 263.066,260.119 275.5,252C 289.862,247.954 301.528,251.787 310.5,263.5C 315.183,257.982 320.85,253.815 327.5,251C 345.736,248.898 357.236,256.731 362,274.5C 362.499,278.486 362.666,282.486 362.5,286.5C 374.113,286.136 382.447,291.136 387.5,301.5C 393.463,302.496 399.463,302.829 405.5,302.5C 405.5,271.167 405.5,239.833 405.5,208.5C 372.832,208.667 340.165,208.5 307.5,208C 305.274,206.773 303.774,204.939 303,202.5C 302.5,170.168 302.333,137.835 302.5,105.5C 271.167,105.5 239.833,105.5 208.5,105.5C 208.666,114.173 208.5,122.84 208,131.5C 206.67,135.007 204.17,136.673 200.5,136.5C 197.439,136.556 195.272,135.222 194,132.5C 193.333,119.833 193.333,107.167 194,94.5C 194.5,92.6667 195.667,91.5 197.5,91C 236.167,90.3333 274.833,90.3333 313.5,91C 315.928,92.0183 317.262,93.8517 317.5,96.5 Z"/></g>
<g><path style="opacity:1" fill="#fefefe" d="M 200.5,164.5 C 200.5,155.167 200.5,145.833 200.5,136.5C 204.17,136.673 206.67,135.007 208,131.5C 208.5,122.84 208.666,114.173 208.5,105.5C 239.833,105.5 271.167,105.5 302.5,105.5C 302.333,137.835 302.5,170.168 303,202.5C 303.774,204.939 305.274,206.773 307.5,208C 340.165,208.5 372.832,208.667 405.5,208.5C 405.5,239.833 405.5,271.167 405.5,302.5C 399.463,302.829 393.463,302.496 387.5,301.5C 382.447,291.136 374.113,286.136 362.5,286.5C 362.666,282.486 362.499,278.486 362,274.5C 357.236,256.731 345.736,248.898 327.5,251C 320.85,253.815 315.183,257.982 310.5,263.5C 301.528,251.787 289.862,247.954 275.5,252C 263.066,260.119 257.4,271.619 258.5,286.5C 251.931,285.859 245.931,287.359 240.5,291C 229.816,302.298 227.649,315.132 234,329.5C 238.727,341.099 247.227,347.766 259.5,349.5C 255.818,382.826 270.151,395.493 302.5,387.5C 302.5,393.5 302.5,399.5 302.5,405.5C 271.167,405.5 239.833,405.5 208.5,405.5C 208.667,372.832 208.5,340.165 208,307.5C 206.773,305.274 204.939,303.774 202.5,303C 170.168,302.5 137.835,302.333 105.5,302.5C 105.5,271.167 105.5,239.833 105.5,208.5C 137.835,208.667 170.168,208.5 202.5,208C 205.333,207.167 207.167,205.333 208,202.5C 208.667,191.5 208.667,180.5 208,169.5C 206.59,166.211 204.09,164.544 200.5,164.5 Z"/></g>
<g><path style="opacity:1" fill="#75a6b6" d="M 193.5,170.5 C 193.5,178.167 193.5,185.833 193.5,193.5C 161.167,193.5 128.833,193.5 96.5,193.5C 128.329,192.502 160.329,192.168 192.5,192.5C 192.175,184.981 192.508,177.648 193.5,170.5 Z"/></g>
<g><path style="opacity:1" fill="#76a8b7" d="M 317.5,96.5 C 318.498,128.329 318.832,160.329 318.5,192.5C 350.671,192.168 382.671,192.502 414.5,193.5C 382.167,193.5 349.833,193.5 317.5,193.5C 317.5,161.167 317.5,128.833 317.5,96.5 Z"/></g>
<g><path style="opacity:1" fill="#39bdea" d="M 299.5,302.5 C 296.396,304.719 293.063,306.385 289.5,307.5C 285.719,307.026 282.552,305.359 280,302.5C 272.713,292.388 271.713,281.722 277,270.5C 283.547,262.728 290.214,262.728 297,270.5C 303.337,280.714 304.17,291.38 299.5,302.5 Z"/></g>
<g><path style="opacity:1" fill="#3abdeb" d="M 330.5,307.5 C 327.872,306.186 325.205,304.853 322.5,303.5C 315.562,289.858 317.562,277.692 328.5,267C 338.026,263.512 344.193,266.678 347,276.5C 349.139,288.131 345.972,297.965 337.5,306C 335.323,307.202 332.989,307.702 330.5,307.5 Z"/></g>
<g><path style="opacity:1" fill="#38bbe8" d="M 250.5,301.5 C 259.744,301.217 265.91,305.55 269,314.5C 269.772,319.904 269.439,325.238 268,330.5C 263.731,335.297 258.897,335.797 253.5,332C 244.31,322.473 243.31,312.307 250.5,301.5 Z"/></g>
<g><path style="opacity:1" fill="#38bce9" d="M 362.5,301.5 C 371.071,301.238 375.071,305.405 374.5,314C 374.664,320.174 372.831,325.674 369,330.5C 358.047,337.94 352.213,335.106 351.5,322C 351.893,313.379 355.56,306.545 362.5,301.5 Z"/></g>
<g><path style="opacity:1" fill="#bac8cd" d="M 299.5,302.5 C 297.279,306.277 293.946,307.944 289.5,307.5C 293.063,306.385 296.396,304.719 299.5,302.5 Z"/></g>
<g><path style="opacity:1" fill="#becbd0" d="M 322.5,303.5 C 325.205,304.853 327.872,306.186 330.5,307.5C 326.981,307.741 324.315,306.407 322.5,303.5 Z"/></g>
<g><path style="opacity:1" fill="#78aaba" d="M 96.5,317.5 C 128.833,317.5 161.167,317.5 193.5,317.5C 193.5,349.833 193.5,382.167 193.5,414.5C 192.502,382.671 192.168,350.671 192.5,318.5C 160.329,318.832 128.329,318.498 96.5,317.5 Z"/></g>
<g><path style="opacity:1" fill="#39beeb" d="M 304.5,318.5 C 326.686,318.841 340.52,329.841 346,351.5C 346.829,358.234 346.496,364.901 345,371.5C 342.855,374.738 339.855,376.405 336,376.5C 327.005,373.89 317.838,372.224 308.5,371.5C 300.99,372.769 293.49,374.102 286,375.5C 278.992,375.828 274.992,372.495 274,365.5C 273.649,342.841 283.815,327.174 304.5,318.5 Z"/></g>
</svg>
